HIERARCHY
ROOT Hips
{
     OFFSET 18.43440 94.57110 -29.15870
     CHANNELS 6 Xposition Yposition Zposition Zrotation Xrotation Yrotation
     JOINT Spine
     {
          OFFSET 0.00000 11.89050 -0.00000
          CHANNELS 3 Zrotation Xrotation Yrotation
          JOINT Spine1
          {
               OFFSET 0.00000 25.65740 0.12766
               CHANNELS 3 Zrotation Xrotation Yrotation
               JOINT HEad
               {
                    OFFSET -0.00000 8.73416 0.01134
                    CHANNELS 3 Zrotation Xrotation Yrotation
                    End Site
                    {
                         OFFSET -0.29000 12.77420 2.51395
                    }
               }
               JOINT LeftShoulder1
               {
                    OFFSET 8.99000 -0.36225 -0.22000
                    CHANNELS 3 Zrotation Xrotation Yrotation
                    JOINT LeftArm
                    {
                         OFFSET 10.28270 -0.00338 0.32212
                         CHANNELS 3 Zrotation Xrotation Yrotation
                         JOINT LeftForeArm
                         {
                              OFFSET 32.76690 0.09914 -1.42434
                              CHANNELS 3 Zrotation Xrotation Yrotation
                              JOINT LeftHand
                              {
                                   OFFSET 27.56430 0.08536 1.02216
                                   CHANNELS 3 Zrotation Xrotation Yrotation
                                   End Site
                                   {
                                        OFFSET 16.74430 -0.60000 1.50291
                                   }
                              }
                         }
                    }
               }
               JOINT RightShoulder
               {
                    OFFSET -8.99000 -0.36225 -0.22000
                    CHANNELS 3 Zrotation Xrotation Yrotation
                    JOINT RightArm
                    {
                         OFFSET -10.28270 -0.00338 0.32212
                         CHANNELS 3 Zrotation Xrotation Yrotation
                         JOINT RightForeArm
                         {
                              OFFSET -32.89710 0.09914 -1.42434
                              CHANNELS 3 Zrotation Xrotation Yrotation
                              JOINT RightHand
                              {
                                   OFFSET -27.49210 0.08536 1.02216
                                   CHANNELS 3 Zrotation Xrotation Yrotation
                                   End Site
                                   {
                                        OFFSET -16.63120 -0.60000 1.50291
                                   }
                              }
                         }
                    }
               }
          }
     }
     JOINT LeftUpLeg
     {
          OFFSET 8.94580 -8.66707 0.10165
          CHANNELS 3 Zrotation Xrotation Yrotation
          JOINT LeftLeg
          {
               OFFSET -0.00000 -44.42270 1.37270
               CHANNELS 3 Zrotation Xrotation Yrotation
               JOINT LeftFoot
               {
                    OFFSET -0.25355 -42.09240 -1.46059
                    CHANNELS 3 Zrotation Xrotation Yrotation
                    JOINT LeftToes
                    {
                         OFFSET -0.04000 -4.41509 8.49910
                         CHANNELS 3 Zrotation Xrotation Yrotation
                         End Site
                         {
                              OFFSET 0.08000 -0.04745 9.77979
                         }
                    }
               }
          }
     }
     JOINT RightUpLeg
     {
          OFFSET -8.94580 -8.66707 0.10165
          CHANNELS 3 Zrotation Xrotation Yrotation
          JOINT RightLeg
          {
               OFFSET -0.00000 -44.42270 1.37270
               CHANNELS 3 Zrotation Xrotation Yrotation
               JOINT RightFoot
               {
                    OFFSET 0.25355 -42.09240 -1.46059
                    CHANNELS 3 Zrotation Xrotation Yrotation
                    JOINT RightToes
                    {
                         OFFSET 0.04000 -4.41509 8.49910
                         CHANNELS 3 Zrotation Xrotation Yrotation
                         End Site
                         {
                              OFFSET -0.08000 -0.13745 9.77979
                         }
                    }
               }
          }
     }
}
MOTION
Frames: 19
Frame Time: 0.01667
33.72940 92.26290 16.52180 4.12111 -19.96450 18.86190 4.87797 11.00920 3.44686 8.65884 23.23010 9.25126 -13.72150 5.86645 -27.61190 -0.00000 0.00000 -0.00000 -117.68000 -33.72240 -88.56220 -61.59160 56.39520 -67.70450 22.81200 4.45708 -23.22650 16.79210 3.52068 15.65750 72.36130 -23.32500 77.48540 62.21050 -8.40069 72.34080 30.58710 14.43780 12.11920 -0.37311 -11.53250 -15.85800 -13.37150 17.92010 40.59570 0.49921 31.92000 -0.38206 -1.66267 -32.86250 -82.34820 -33.21340 22.85070 22.62450 43.27720 19.85180 -16.95250 -13.98500 23.93560 3.90151 16.58760 -57.46460 25.04270 
33.80220 92.11420 16.32420 4.82119 -19.89040 19.99900 5.38005 11.06680 4.06057 9.25482 23.41710 10.59370 -15.26340 7.03924 -27.87780 -0.00000 0.00000 -0.00000 -117.87700 -32.52270 -88.21180 -60.19460 57.27990 -68.71400 22.82040 4.54627 -22.78440 10.49540 2.63005 16.38560 80.93310 -19.31690 89.22390 63.99260 -4.23539 73.83540 31.45660 14.77360 12.83360 -1.42122 -11.49870 -15.69500 -12.79930 18.04360 39.74740 0.40369 32.47500 -0.35449 -1.69273 -32.85320 -82.61100 -33.85820 22.95340 22.67050 43.90640 19.89060 -17.73380 -14.10810 24.19320 3.96986 17.25400 -57.80260 26.12090 
33.76160 92.00570 16.32550 5.62444 -19.44010 21.58480 5.46068 10.89040 4.61712 9.17945 23.09920 11.84250 -14.45790 8.29370 -29.18660 -0.00000 0.00000 -0.00000 -117.12400 -30.76300 -87.53550 -59.40230 58.12780 -68.38380 22.22730 4.85684 -21.97270 5.28440 1.75550 16.05520 87.54200 -15.51050 96.90320 64.91750 -0.21599 74.24070 32.55020 15.09750 13.34160 -2.71326 -11.72890 -15.94070 -12.16810 18.24180 38.66200 -0.06143 33.04240 -0.19434 -1.60151 -32.69250 -82.70260 -34.21070 23.23840 22.85050 44.38680 19.65990 -18.63820 -14.35880 23.67500 3.97106 17.13390 -57.68100 25.98710 
33.61060 91.98740 16.57210 6.44539 -18.68180 23.38940 5.14702 10.52820 4.98961 8.51910 22.35800 12.69430 -12.06860 9.47160 -31.20380 -0.00000 0.00000 -0.00000 -115.20100 -28.68280 -86.47230 -59.42090 58.31010 -66.85340 21.18910 5.25577 -21.18820 2.27898 1.21710 15.07330 91.97870 -12.60170 100.85500 65.20370 2.76213 73.84810 33.43510 15.28740 13.48850 -3.98529 -12.08350 -16.32400 -11.66950 18.41490 37.26980 -1.13985 33.50850 0.19197 -1.15756 -32.03740 -82.52590 -34.19250 23.65830 23.19910 44.55770 19.19980 -19.49730 -14.71300 22.78260 3.94709 16.62850 -57.32020 25.26680 
33.40080 92.07630 17.01980 7.13309 -17.86200 24.94080 4.57841 10.18120 5.08088 7.55732 21.58160 12.90050 -9.36148 10.25100 -33.17000 -0.00000 0.00000 -0.00000 -112.65000 -26.72380 -85.27720 -60.06960 57.52380 -64.62750 20.09400 5.58284 -20.78310 1.51320 1.04561 14.07940 94.65710 -10.70380 101.57900 64.98370 4.50380 73.10600 33.91370 15.28720 13.23040 -4.91356 -12.40160 -16.47570 -11.43190 18.57300 35.74330 -2.75311 33.69620 0.77746 -0.30378 -30.76660 -82.11060 -33.87850 24.07060 23.67060 44.45980 18.64330 -20.43460 -15.20800 22.04880 3.97698 16.30900 -56.96680 24.92050 
33.22210 92.26400 17.56660 7.54625 -17.28160 25.75980 3.95113 10.03830 4.89762 6.60453 21.17010 12.46670 -7.28559 10.40740 -34.46100 -0.00000 0.00000 -0.00000 -106.34500 -23.34090 -83.12180 -54.78160 53.61990 -68.72860 19.29840 5.89961 -19.98970 2.41816 1.13453 13.50700 95.99130 -9.72231 99.68040 64.02710 5.18149 72.40990 33.77470 15.12620 12.78080 -5.25159 -12.51590 -16.16880 -11.48180 18.69550 34.52330 -4.41243 33.52670 1.37340 0.74496 -29.15300 -81.62360 -33.47940 24.34840 24.12720 44.25450 18.13480 -21.55540 -15.82360 21.82270 4.10598 16.44400 -56.67250 25.49480 
33.16620 92.53420 18.11290 7.57974 -17.09650 25.58550 3.44352 10.13680 4.51821 5.88736 21.24280 11.58650 -6.22324 9.90661 -34.86860 -0.00000 0.00000 -0.00000 -101.60200 -20.86630 -81.63960 -50.81610 49.57900 -71.85320 18.80770 6.07011 -19.61190 4.42685 1.40097 13.44970 96.10190 -9.57207 95.83790 61.96980 5.11808 71.97620 32.84900 14.91660 12.57210 -4.95842 -12.32970 -15.45110 -11.70910 18.68870 34.02250 -5.52738 33.06230 1.75580 1.64178 -27.72760 -81.22400 -33.19700 24.42210 24.37900 44.07750 17.74750 -22.75950 -16.46270 22.15010 4.32303 16.91250 -56.25940 26.92150 
33.28380 92.85870 18.59940 7.16324 -17.23430 24.42560 3.14285 10.37870 4.02680 5.50333 21.63450 10.46830 -6.14496 8.85109 -34.48150 -0.00000 0.00000 -0.00000 -98.91610 -19.64360 -80.61190 -48.24080 46.39420 -73.88360 18.55780 6.13151 -19.56670 7.17009 1.79633 13.68090 94.98120 -10.07190 90.74430 58.82060 4.71731 71.74300 31.26760 14.77340 12.93820 -4.18384 -11.91230 -14.62310 -11.95360 18.49420 34.40900 -5.80678 32.35330 1.82269 2.14807 -26.90950 -80.95250 -33.09690 24.22440 24.28950 43.96820 17.50130 -23.81270 -17.00770 22.89740 4.58493 17.48260 -55.53440 28.92730 
33.56300 93.19100 19.01050 6.27987 -17.47500 22.42580 3.02121 10.64880 3.48263 5.41693 22.10810 9.24700 -6.76833 7.37433 -33.42220 -0.00000 0.00000 -0.00000 -97.90040 -19.55320 -79.78790 -46.87510 44.36290 -74.96130 18.34130 6.15389 -19.71740 10.37580 2.25452 13.80050 92.76900 -10.83650 85.05160 55.22390 4.38580 71.48630 29.44760 14.71890 13.81220 -3.10918 -11.49270 -14.06750 -12.17450 18.16630 35.66370 -5.35067 31.33890 1.61994 2.24580 -26.76870 -80.70620 -33.10940 23.62910 23.87860 43.89980 17.43370 -24.50070 -17.42160 23.93890 4.86546 18.06860 -54.56600 31.30870 
33.94450 93.48480 19.35590 4.98657 -17.60330 19.70910 2.98484 10.89740 2.91509 5.49282 22.53910 7.99062 -7.67194 5.57107 -31.69720 -0.00000 0.00000 -0.00000 -98.06830 -20.48270 -79.12170 -46.84590 43.48150 -74.95820 17.99070 6.19089 -19.96430 13.72690 2.67592 13.51680 89.86890 -11.40700 79.34760 52.04550 4.43256 71.07950 27.83230 14.70010 14.79200 -1.80529 -11.29990 -14.02280 -12.50830 17.79710 37.72220 -4.42531 29.96120 1.25768 2.05909 -27.12750 -80.29470 -33.10430 22.46660 23.33090 43.81640 17.64220 -24.70970 -17.75530 25.16730 5.16173 18.70050 -53.63350 33.84880 
34.35780 93.71810 19.64880 3.39433 -17.50790 16.32180 2.94885 11.13890 2.33004 5.56332 22.93720 6.73334 -8.43957 3.50780 -29.25440 -0.00000 0.00000 -0.00000 -99.05070 -22.39130 -78.72880 -48.13990 43.58850 -73.81920 17.52470 6.25670 -20.19940 16.82470 2.97673 12.86000 86.86020 -11.51760 74.13620 49.73040 5.01164 70.57010 26.68680 14.66900 15.47990 -0.22306 -11.41440 -14.48240 -13.16150 17.41080 40.54940 -3.22094 28.30650 0.82415 1.71202 -27.79760 -79.61820 -32.96190 20.61790 22.84350 43.65020 18.26320 -24.44940 -18.07280 26.41900 5.46512 19.35980 -52.93940 36.23580 
34.75090 93.89490 19.89390 1.61487 -17.16830 12.29210 2.87121 11.40410 1.73171 5.50990 23.35480 5.49977 -8.78747 1.27963 -26.12710 -0.00000 0.00000 -0.00000 -100.52000 -25.12640 -78.77080 -50.26250 44.30800 -71.86390 17.09000 6.33569 -20.31270 19.25780 3.13658 12.09950 84.28990 -11.18820 69.76550 48.09700 6.15097 70.08460 26.01530 14.60570 15.71940 1.72060 -11.78070 -15.22820 -14.23590 16.98040 44.02820 -1.86764 26.57060 0.38122 1.28810 -28.64270 -78.75190 -32.61870 18.10820 22.44630 43.36860 19.36710 -23.86550 -18.45470 27.49870 5.76725 19.89340 -52.52120 38.01700 
35.09960 94.02940 20.08560 -0.26696 -16.58410 7.72678 2.73328 11.70000 1.14193 5.29013 23.79920 4.32045 -8.57992 -0.93453 -22.47800 -0.00000 0.00000 -0.00000 -102.09700 -28.31730 -79.34000 -52.41670 45.13180 -69.72180 16.81630 6.40485 -20.25470 20.79380 3.17507 11.41920 82.45180 -10.53520 66.38890 46.63030 7.81200 69.76640 25.62860 14.50490 15.58750 4.04568 -12.30490 -15.92920 -15.63000 16.52080 47.79490 -0.56614 24.93100 -0.00521 0.87723 -29.50110 -77.81580 -32.08720 15.12220 21.96340 43.03280 20.86780 -23.22140 -18.99230 28.23050 6.06630 20.00800 -52.33750 38.53160 
35.40100 94.12910 20.21280 -2.17180 -15.74640 2.87292 2.51220 11.99590 0.58204 4.89924 24.20990 3.20963 -7.77370 -2.90113 -18.47660 -0.00000 0.00000 -0.00000 -103.42900 -31.56090 -80.40720 -54.03540 45.68810 -67.92290 16.71650 6.45687 -20.04960 21.60390 3.11863 10.76980 81.23570 -9.61335 64.01100 44.92160 9.89332 69.74440 25.30960 14.38190 15.30320 6.67160 -12.92160 -16.32190 -17.13660 16.11760 51.37710 0.46740 23.47740 -0.28363 0.56530 -30.21420 -76.86040 -31.45880 11.94580 21.12240 42.82080 22.55370 -22.87630 -19.73640 28.44070 6.34467 19.31680 -52.23450 37.07280 
35.65810 94.18470 20.25770 -4.01292 -14.68420 -1.93566 2.19648 12.24490 0.04206 4.36921 24.50720 2.12482 -6.43049 -4.45287 -14.21000 -0.00000 0.00000 -0.00000 -104.37700 -34.69060 -81.86870 -55.08060 45.90650 -66.58880 16.68510 6.50482 -19.76800 22.11760 3.00845 10.07220 80.28020 -8.48772 62.55770 42.84540 12.23230 70.10220 24.88240 14.27110 15.14760 9.47431 -13.59050 -16.32130 -18.62620 15.86060 54.50090 1.13523 22.23660 -0.44463 0.37640 -30.72900 -75.90150 -30.88870 8.90048 19.74770 42.98930 24.16780 -23.31660 -20.70940 27.96790 6.56921 17.58320 -51.83900 33.48620 
35.86690 94.17740 20.19610 -5.73138 -13.50580 -6.43294 1.80691 12.42900 -0.49863 3.79630 24.67520 1.00721 -4.75417 -5.55864 -9.79531 -0.00000 0.00000 -0.00000 -105.13300 -37.77580 -83.66840 -55.78170 45.99410 -65.57650 16.59550 6.56459 -19.48900 22.56450 2.87933 9.35173 79.41690 -7.28271 61.96650 40.43910 14.68010 70.89280 24.21530 14.18180 15.27130 12.36650 -14.24810 -15.93020 -20.08750 15.79170 57.15680 1.46581 21.23310 -0.51158 0.26747 -31.10370 -74.99620 -30.53720 6.29299 17.89750 43.74120 25.46610 -25.07650 -21.90850 26.78670 6.71391 15.16270 -50.72380 28.84870 
36.01930 94.09690 20.01450 -7.31763 -12.34610 -10.52900 1.37301 12.57250 -1.02295 3.27963 24.77820 -0.11491 -3.01254 -6.27406 -5.48038 -0.00000 0.00000 -0.00000 -106.14900 -40.90860 -85.89340 -56.25050 46.33310 -64.77060 16.40410 6.64284 -19.22740 22.86690 2.73013 8.62973 78.83430 -6.10885 62.21770 37.79530 17.14390 72.15580 23.33540 14.07990 15.51800 15.29990 -14.80580 -15.11950 -21.52850 15.93290 59.43450 1.55676 20.49440 -0.51987 0.17039 -31.43760 -74.24280 -30.48640 4.33551 15.79210 45.04410 26.33460 -28.37680 -23.30440 25.07660 6.78027 12.91420 -48.85060 25.02080 
36.11530 93.95610 19.73280 -8.77685 -11.27670 -14.28600 0.92819 12.69970 -1.47688 2.84012 24.87860 -1.10420 -1.42792 -6.67465 -1.56887 -0.00000 0.00000 -0.00000 -107.89100 -44.04270 -88.71560 -56.44190 47.27000 -64.16610 16.15420 6.73955 -18.91400 22.90470 2.54742 7.88437 78.79090 -5.04312 63.24490 35.05480 19.54100 73.88310 22.45980 13.94040 15.59460 18.22330 -15.19440 -13.85480 -22.91660 16.30170 61.38790 1.54846 20.01020 -0.50834 0.02547 -31.82710 -73.69830 -30.69880 3.03900 13.63690 46.57160 26.93850 -32.77290 -24.86590 23.12550 6.79816 11.32690 -46.60140 22.94580 
36.16540 93.78160 19.40130 -10.09180 -10.29210 -17.81630 0.52685 12.80060 -1.81032 2.43681 24.97020 -1.80481 -0.14300 -6.82701 1.71190 -0.00000 0.00000 -0.00000 -110.58000 -46.98550 -92.20270 -56.35060 48.87030 -63.78100 15.89510 6.85127 -18.49410 22.68830 2.33859 7.11995 79.32940 -4.16144 64.86530 32.39790 21.76510 75.96860 21.80000 13.78090 15.38270 21.07220 -15.38750 -12.23320 -24.22620 16.85820 63.06880 1.60460 19.72440 -0.51610 -0.20934 -32.35710 -73.32560 -31.08040 2.21238 11.60350 47.88670 27.61490 -37.30900 -26.53400 21.31150 6.82608 10.26180 -44.38440 22.11140 
